# xmcd CD database file
# Copyright (C) 1993-1998 Ti Kan
# 
# Track frame offsets:
#     150
#     14295
#     27605
#     38935
#     54335
#     69103
#     84228
#     93728
#     111195
#     127900
#     145580
#     156850
#     182833
#     194918
#     206968
#     218693
#     232233
#     247183
#     261688
#     272105
# 
# Disc length: 3781 seconds
# 
# Revision: 1
# Processed by: cddbd v1.4b41PL1 Copyright (c) Steve Scherf et al.
# Submitted via: DiscPlay 4.0.4
# 
DISCID=340ec314
DTITLE=Muddy Waters Blues Band - Mud In Your Ear
DYEAR=1900
DGENRE=
TTITLE0=Diggin' My Potatoes
TTITLE1=Watch Dog
TTITLE2=Sting It
TTITLE3=Why'd You Do Me?
TTITLE4=Natural Wig
TTITLE5=Mud In Your Ear
TTITLE6=Excuse Me Baby
TTITLE7=Sad Day Uptown
TTITLE8=Top of the Boogaloo
TTITLE9=Long Distance Call
TTITLE10=Mini Dress
TTITLE11=Remember Me
TTITLE12=Snake
TTITLE13=Comin' Home Baby
TTITLE14=Blues for Hippies
TTITLE15=Chicken Shack
TTITLE16=Love 'n' Trouble
TTITLE17=I'm So Glad
TTITLE18=Love Without Jealousy
TTITLE19=Evil
EXTD=
EXTT0=
EXTT1=
EXTT2=
EXTT3=
EXTT4=
EXTT5=
EXTT6=
EXTT7=
EXTT8=
EXTT9=
EXTT10=
EXTT11=
EXTT12=
EXTT13=
EXTT14=
EXTT15=
EXTT16=
EXTT17=
EXTT18=
EXTT19=
PLAYORDER=
